# xmcd
#
# Track frame offsets:
# 150
# 15630
# 36900
# 61335
# 78040
# 94050
# 112235
# 122200
# 142200
# 158590
# 184662
# 187375
# 192112
# 214715
# 231910
# 254615
# 276570
# 303565
# 320722
#
# Disc length: 4444 seconds
#
#
# Revision: 0
# Processed by: cddbd v1.5.2PL0 Copyright (c) Steve Scherf et al.
# Submitted via: FreeRIP 2.942 
#
DISCID=23115a13
DTITLE=Company Flow - Funcrusherplus
DYEAR=1997
DGENRE=Hip-Hop
TTITLE0=Bad Touch Example
TTITLE1=8 Steps to Perfection
TTITLE2=Collude/Intrude
TTITLE3=Blind
TTITLE4=Silence
TTITLE5=Legends
TTITLE6=Lune TNS
TTITLE7=Help Wanted
TTITLE8=Population Control
TTITLE9=Definitive
TTITLE10=Lencorcism
TTITLE11=89.9 Detrimental
TTITLE12=Vital Nerve
TTITLE13=Tragedy of War (In III Parts)
TTITLE14=The Fire in Which You Burn
TTITLE15=Krazy Kings
TTITLE16=Last Good Sleep
TTITLE17=Info Kill II
TTITLE18=Funcrush Scratch
EXTD=
EXTT0=
EXTT1=
EXTT2=
EXTT3=
EXTT4=
EXTT5=
EXTT6=
EXTT7=
EXTT8=
EXTT9=
EXTT10=
EXTT11=
EXTT12=
EXTT13=
EXTT14=
EXTT15=
EXTT16=
EXTT17=
EXTT18=
PLAYORDER=
